<?xml version="1.0" encoding="UTF-8"?><svg id="b" xmlns="http://www.w3.org/2000/svg" width="600" height="320" viewBox="0 0 600 320"><polygon points="100 120 120 120 120 140 80 140 80 120 100 120"/><path d="M20,20V220H580V0h20V220.15h-20v99.85H20v-99.85H0V0H20V20ZM200,300h360v-60H40v60H200Z"/><polygon points="440 120 320 120 320 100 460 100 460 120 440 120"/><polygon points="100 0 520 0 520 20 80 20 80 0 100 0"/><path d="M20,0h60V20h440V0h60V220.15l-560-.15V0Zm60,140h40v-20h-40v20Zm240-20h140v-20h-140v20Z" fill="#fff"/><rect x="40" y="240" width="520" height="60" fill="#fff"/></svg>