<?xml version="1.0" encoding="UTF-8"?><svg id="b" xmlns="http://www.w3.org/2000/svg" width="600" height="80" viewBox="0 0 600 80"><polygon points="60 0 560 0 560 19.85 580.15 19.85 580.15 40 600 40 600 80 580 80 580 40.15 559.85 40.15 559.85 20 40.15 20 40.15 40.15 20 40.15 20 80 0 80 0 40 19.85 40 19.85 19.85 40 19.85 40 0 60 0"/><polygon points="100 60 520 60 520 80 80 80 80 60 100 60"/><polygon points="20 80 20 40.15 40.15 40.15 40.15 20 559.85 20 559.85 40.15 580 40.15 580 80 520 80 520 60 80 60 80 80 20 80" fill="#fff"/></svg>